# xmcd
#
# Track frame offsets:
#	150
#	13501
#	27050
#	41608
#	54192
#	68628
#	80319
#	93150
#	104789
#	117592
#	131711
#	145231
#
# Disc length: 2116 seconds
#
# Revision: 0
# Processed by: cddbd v1.5.2PL0 Copyright (c) Steve Scherf et al.
# Submitted via: EasyCDDAExtractor 16.0.6.1
#
DISCID=9a08420c
DTITLE=Συλλογικός δίσκος - Στων αγγέλων τα μπουζούκια 01-Μ. Χιώτης
DYEAR=2009
DGENRE=Λαϊκή
TTITLE0=Λίντα Μαίρη-Χιώτης Μανώλης - Απότομα [Μ. Χιώτης]
TTITLE1=Λίντα Μαίρη-Χιώτης Μανώλης - Ο ουρανός ξημέρωσε [Μ. Χιώτης-Γιάννης Φερ
TTITLE1=μανόγλου]
TTITLE2=Χρυσάφη Άννα-Καχαγιάς Αξιώτης - Θεσσαλονίκη μου [Μ. Χιώτης-Χρ. Κολοκοτ
TTITLE2=ρώνης]
TTITLE3=Καζαντζίδης Στέλιος-Μαρινέλλα - Ηλιοβασιλέματα [Μ. Χιώτης
TTITLE4=Ντάλια Ρένα - Εγώ το πλουσιόπαιδο [Μ. Χιώτης-Χ. Κολοκοτρώνης]
TTITLE5=Δολιανίτης Ντίνος - Αφού το θες [Μ. Χιώτης]
TTITLE6=Κολοκοτρώνης Χρήστος - Την έδιωξα κι όμως την αγαπώ [Μ. Χιώτης-Χρ. Κολ
TTITLE6=οκοτρώνης]
TTITLE7=Κολοκοτρώνης Χρήστος - Απόψε φίλα με [Μ. Χιώτης-Χρ. Κολοκοτρώνης]
TTITLE8=Καζαντζίδης Στέλιος-Μαρινέλλα - Βρε σαν τα χιόνια [Μ. Χιώτης-Χρ. Κολοκ
TTITLE8=οτρώνης]
TTITLE9=Πάνου Πόλυ - Μονότερμα [Μ. Χιώτης]
TTITLE10=Άνευ ερμηνευτού - Φλόγα solo μπουζούκι [ορχηστρικό, Μ. Χιώτης]
TTITLE11=Άνευ ερμηνευτού - Έρωτά μου κατεργάρη [solo, Μ. Χιώτης-Εμμ. Ζουλινός]
EXTD=
EXTT0=
EXTT1=
EXTT2=
EXTT3=
EXTT4=
EXTT5=
EXTT6=
EXTT7=
EXTT8=
EXTT9=
EXTT10=
EXTT11=
PLAYORDER=
